#include "tunes.h"
 int superMarioShort[] = {
  NOTE_E5,8, NOTE_E5,8, REST,8, NOTE_E5,8, REST,8, NOTE_C5,8, NOTE_E5,8, 
  NOTE_G5,4, REST,4, NOTE_G4,8, 
};
//20
 int darthVaderShort[] = {
  NOTE_AS4,8, NOTE_AS4,8, NOTE_AS4,8,
  NOTE_F5,2, NOTE_C6,2,
  NOTE_AS5,8, NOTE_A5,8, NOTE_G5,8, NOTE_F6,2, NOTE_C6,4,  
};
//24
 int pinkPantherShort[] = {
  NOTE_DS4,8, 
  NOTE_E4,-4, REST,8, NOTE_FS4,8, NOTE_G4,-4, REST,8, NOTE_DS4,8,
  NOTE_E4,-8, NOTE_FS4,8,  NOTE_G4,-8, NOTE_C5,8, NOTE_B4,-8, 
};
//176
int pinkPantherFull[] = {
  REST,2, REST,4, REST,8, NOTE_DS4,8, 
  NOTE_E4,-4, REST,8, NOTE_FS4,8, NOTE_G4,-4, REST,8, NOTE_DS4,8,
  NOTE_E4,-8, NOTE_FS4,8,  NOTE_G4,-8, NOTE_C5,8, NOTE_B4,-8, NOTE_E4,8, NOTE_G4,-8, NOTE_B4,8,   
  NOTE_AS4,2, NOTE_A4,-16, NOTE_G4,-16, NOTE_E4,-16, NOTE_D4,-16, 
  NOTE_E4,2, REST,4, REST,8, NOTE_DS4,4,
  NOTE_E4,-4, REST,8, NOTE_FS4,8, NOTE_G4,-4, REST,8, NOTE_DS4,8,
  NOTE_E4,-8, NOTE_FS4,8,  NOTE_G4,-8, NOTE_C5,8, NOTE_B4,-8, NOTE_G4,8, NOTE_B4,-8, NOTE_E5,8,
  NOTE_DS5,1,   
  NOTE_D5,2, REST,4, REST,8, NOTE_DS4,8, 
  NOTE_E4,-4, REST,8, NOTE_FS4,8, NOTE_G4,-4, REST,8, NOTE_DS4,8,
  NOTE_E4,-8, NOTE_FS4,8,  NOTE_G4,-8, NOTE_C5,8, NOTE_B4,-8, NOTE_E4,8, NOTE_G4,-8, NOTE_B4,8,   
  NOTE_AS4,2, NOTE_A4,-16, NOTE_G4,-16, NOTE_E4,-16, NOTE_D4,-16, 
  NOTE_E4,-4, REST,4,
  REST,4, NOTE_E5,-8, NOTE_D5,8, NOTE_B4,-8, NOTE_A4,8, NOTE_G4,-8, NOTE_E4,-8,
  NOTE_AS4,16, NOTE_A4,-8, NOTE_AS4,16, NOTE_A4,-8, NOTE_AS4,16, NOTE_A4,-8, NOTE_AS4,16, NOTE_A4,-8,   
  NOTE_G4,-16, NOTE_E4,-16, NOTE_D4,-16, NOTE_E4,16, NOTE_E4,16, NOTE_E4,2,
};
//642
 int superMarioFull[] = {  
  NOTE_E5,8, NOTE_E5,8, REST,8, NOTE_E5,8, REST,8, NOTE_C5,8, NOTE_E5,8, //1
  NOTE_G5,4, REST,4, NOTE_G4,8, REST,4, 
  NOTE_C5,-4, NOTE_G4,8, REST,4, NOTE_E4,-4, // 3
  NOTE_A4,4, NOTE_B4,4, NOTE_AS4,8, NOTE_A4,4,
  NOTE_G4,-8, NOTE_E5,-8, NOTE_G5,-8, NOTE_A5,4, NOTE_F5,8, NOTE_G5,8,
  REST,8, NOTE_E5,4,NOTE_C5,8, NOTE_D5,8, NOTE_B4,-4,
  NOTE_C5,-4, NOTE_G4,8, REST,4, NOTE_E4,-4, // repeats from 3
  NOTE_A4,4, NOTE_B4,4, NOTE_AS4,8, NOTE_A4,4,
  NOTE_G4,-8, NOTE_E5,-8, NOTE_G5,-8, NOTE_A5,4, NOTE_F5,8, NOTE_G5,8,
  REST,8, NOTE_E5,4,NOTE_C5,8, NOTE_D5,8, NOTE_B4,-4,

  REST,4, NOTE_G5,8, NOTE_FS5,8, NOTE_F5,8, NOTE_DS5,4, NOTE_E5,8,//7
  REST,8, NOTE_GS4,8, NOTE_A4,8, NOTE_C4,8, REST,8, NOTE_A4,8, NOTE_C5,8, NOTE_D5,8,
  REST,4, NOTE_DS5,4, REST,8, NOTE_D5,-4,
  NOTE_C5,2, REST,2,

  REST,4, NOTE_G5,8, NOTE_FS5,8, NOTE_F5,8, NOTE_DS5,4, NOTE_E5,8,//repeats from 7
  REST,8, NOTE_GS4,8, NOTE_A4,8, NOTE_C4,8, REST,8, NOTE_A4,8, NOTE_C5,8, NOTE_D5,8,
  REST,4, NOTE_DS5,4, REST,8, NOTE_D5,-4,
  NOTE_C5,2, REST,2,

  NOTE_C5,8, NOTE_C5,4, NOTE_C5,8, REST,8, NOTE_C5,8, NOTE_D5,4,//11
  NOTE_E5,8, NOTE_C5,4, NOTE_A4,8, NOTE_G4,2,

  NOTE_C5,8, NOTE_C5,4, NOTE_C5,8, REST,8, NOTE_C5,8, NOTE_D5,8, NOTE_E5,8,//13
  REST,1, 
  NOTE_C5,8, NOTE_C5,4, NOTE_C5,8, REST,8, NOTE_C5,8, NOTE_D5,4,
  NOTE_E5,8, NOTE_C5,4, NOTE_A4,8, NOTE_G4,2,
  NOTE_E5,8, NOTE_E5,8, REST,8, NOTE_E5,8, REST,8, NOTE_C5,8, NOTE_E5,4,
  NOTE_G5,4, REST,4, NOTE_G4,4, REST,4, 
  NOTE_C5,-4, NOTE_G4,8, REST,4, NOTE_E4,-4, // 19
  
  NOTE_A4,4, NOTE_B4,4, NOTE_AS4,8, NOTE_A4,4,
  NOTE_G4,-8, NOTE_E5,-8, NOTE_G5,-8, NOTE_A5,4, NOTE_F5,8, NOTE_G5,8,
  REST,8, NOTE_E5,4, NOTE_C5,8, NOTE_D5,8, NOTE_B4,-4,

  NOTE_C5,-4, NOTE_G4,8, REST,4, NOTE_E4,-4, // repeats from 19
  NOTE_A4,4, NOTE_B4,4, NOTE_AS4,8, NOTE_A4,4,
  NOTE_G4,-8, NOTE_E5,-8, NOTE_G5,-8, NOTE_A5,4, NOTE_F5,8, NOTE_G5,8,
  REST,8, NOTE_E5,4, NOTE_C5,8, NOTE_D5,8, NOTE_B4,-4,

  NOTE_E5,8, NOTE_C5,4, NOTE_G4,8, REST,4, NOTE_GS4,4,//23
  NOTE_A4,8, NOTE_F5,4, NOTE_F5,8, NOTE_A4,2,
  NOTE_D5,-8, NOTE_A5,-8, NOTE_A5,-8, NOTE_A5,-8, NOTE_G5,-8, NOTE_F5,-8,
  
  NOTE_E5,8, NOTE_C5,4, NOTE_A4,8, NOTE_G4,2, //26
  NOTE_E5,8, NOTE_C5,4, NOTE_G4,8, REST,4, NOTE_GS4,4,
  NOTE_A4,8, NOTE_F5,4, NOTE_F5,8, NOTE_A4,2,
  NOTE_B4,8, NOTE_F5,4, NOTE_F5,8, NOTE_F5,-8, NOTE_E5,-8, NOTE_D5,-8,
  NOTE_C5,8, NOTE_E4,4, NOTE_E4,8, NOTE_C4,2,

  NOTE_E5,8, NOTE_C5,4, NOTE_G4,8, REST,4, NOTE_GS4,4,//repeats from 23
  NOTE_A4,8, NOTE_F5,4, NOTE_F5,8, NOTE_A4,2,
  NOTE_D5,-8, NOTE_A5,-8, NOTE_A5,-8, NOTE_A5,-8, NOTE_G5,-8, NOTE_F5,-8,
  
  NOTE_E5,8, NOTE_C5,4, NOTE_A4,8, NOTE_G4,2, //26
  NOTE_E5,8, NOTE_C5,4, NOTE_G4,8, REST,4, NOTE_GS4,4,
  NOTE_A4,8, NOTE_F5,4, NOTE_F5,8, NOTE_A4,2,
  NOTE_B4,8, NOTE_F5,4, NOTE_F5,8, NOTE_F5,-8, NOTE_E5,-8, NOTE_D5,-8,
  NOTE_C5,8, NOTE_E4,4, NOTE_E4,8, NOTE_C4,2,
  NOTE_C5,8, NOTE_C5,4, NOTE_C5,8, REST,8, NOTE_C5,8, NOTE_D5,8, NOTE_E5,8,
  REST,1,

  NOTE_C5,8, NOTE_C5,4, NOTE_C5,8, REST,8, NOTE_C5,8, NOTE_D5,4, //33
  NOTE_E5,8, NOTE_C5,4, NOTE_A4,8, NOTE_G4,2,
  NOTE_E5,8, NOTE_E5,8, REST,8, NOTE_E5,8, REST,8, NOTE_C5,8, NOTE_E5,4,
  NOTE_G5,4, REST,4, NOTE_G4,4, REST,4, 
  NOTE_E5,8, NOTE_C5,4, NOTE_G4,8, REST,4, NOTE_GS4,4,
  NOTE_A4,8, NOTE_F5,4, NOTE_F5,8, NOTE_A4,2,
  NOTE_D5,-8, NOTE_A5,-8, NOTE_A5,-8, NOTE_A5,-8, NOTE_G5,-8, NOTE_F5,-8,
  
  NOTE_E5,8, NOTE_C5,4, NOTE_A4,8, NOTE_G4,2, //40
  NOTE_E5,8, NOTE_C5,4, NOTE_G4,8, REST,4, NOTE_GS4,4,
  NOTE_A4,8, NOTE_F5,4, NOTE_F5,8, NOTE_A4,2,
  NOTE_B4,8, NOTE_F5,4, NOTE_F5,8, NOTE_F5,-8, NOTE_E5,-8, NOTE_D5,-8,
  NOTE_C5,8, NOTE_E4,4, NOTE_E4,8, NOTE_C4,2,
  
  //game over sound
  NOTE_C5,-4, NOTE_G4,-4, NOTE_E4,4, //45
  NOTE_A4,-8, NOTE_B4,-8, NOTE_A4,-8, NOTE_GS4,-8, NOTE_AS4,-8, NOTE_GS4,-8,
  NOTE_G4,8, NOTE_D4,8, NOTE_E4,-2,  
};
//176
 int darthVaderFull[] = {
  NOTE_AS4,8, NOTE_AS4,8, NOTE_AS4,8,//1
  NOTE_F5,2, NOTE_C6,2,
  NOTE_AS5,8, NOTE_A5,8, NOTE_G5,8, NOTE_F6,2, NOTE_C6,4,  
  NOTE_AS5,8, NOTE_A5,8, NOTE_G5,8, NOTE_F6,2, NOTE_C6,4,  
  NOTE_AS5,8, NOTE_A5,8, NOTE_AS5,8, NOTE_G5,2, NOTE_C5,8, NOTE_C5,8, NOTE_C5,8,
  NOTE_F5,2, NOTE_C6,2,
  NOTE_AS5,8, NOTE_A5,8, NOTE_G5,8, NOTE_F6,2, NOTE_C6,4,  
  
  NOTE_AS5,8, NOTE_A5,8, NOTE_G5,8, NOTE_F6,2, NOTE_C6,4, //8  
  NOTE_AS5,8, NOTE_A5,8, NOTE_AS5,8, NOTE_G5,2, NOTE_C5,-8, NOTE_C5,16, 
  NOTE_D5,-4, NOTE_D5,8, NOTE_AS5,8, NOTE_A5,8, NOTE_G5,8, NOTE_F5,8,
  NOTE_F5,8, NOTE_G5,8, NOTE_A5,8, NOTE_G5,4, NOTE_D5,8, NOTE_E5,4,NOTE_C5,-8, NOTE_C5,16,
  NOTE_D5,-4, NOTE_D5,8, NOTE_AS5,8, NOTE_A5,8, NOTE_G5,8, NOTE_F5,8,
  
  NOTE_C6,-8, NOTE_G5,16, NOTE_G5,2, REST,8, NOTE_C5,8,//13
  NOTE_D5,-4, NOTE_D5,8, NOTE_AS5,8, NOTE_A5,8, NOTE_G5,8, NOTE_F5,8,
  NOTE_F5,8, NOTE_G5,8, NOTE_A5,8, NOTE_G5,4, NOTE_D5,8, NOTE_E5,4,NOTE_C6,-8, NOTE_C6,16,
  NOTE_F6,4, NOTE_DS6,8, NOTE_CS6,4, NOTE_C6,8, NOTE_AS5,4, NOTE_GS5,8, NOTE_G5,4, NOTE_F5,8,
  NOTE_C6,1
};
//50
 int happybirthday[] = {
  NOTE_C4,4, NOTE_C4,8, 
  NOTE_D4,-4, NOTE_C4,-4, NOTE_F4,-4,
  NOTE_E4,-2, NOTE_C4,4, NOTE_C4,8, 
  NOTE_D4,-4, NOTE_C4,-4, NOTE_G4,-4,
  NOTE_F4,-2, NOTE_C4,4, NOTE_C4,8,

  NOTE_C5,-4, NOTE_A4,-4, NOTE_F4,-4, 
  NOTE_E4,-4, NOTE_D4,-4, NOTE_AS4,4, NOTE_AS4,8,
  NOTE_A4,-4, NOTE_F4,-4, NOTE_G4,-4,
  NOTE_F4,-2,
};
//124
 int odetojoy[] = {
  NOTE_E4,4,  NOTE_E4,4,  NOTE_F4,4,  NOTE_G4,4,//1
  NOTE_G4,4,  NOTE_F4,4,  NOTE_E4,4,  NOTE_D4,4,
  NOTE_C4,4,  NOTE_C4,4,  NOTE_D4,4,  NOTE_E4,4,
  NOTE_E4,-4, NOTE_D4,8,  NOTE_D4,2,

  NOTE_E4,4,  NOTE_E4,4,  NOTE_F4,4,  NOTE_G4,4,//4
  NOTE_G4,4,  NOTE_F4,4,  NOTE_E4,4,  NOTE_D4,4,
  NOTE_C4,4,  NOTE_C4,4,  NOTE_D4,4,  NOTE_E4,4,
  NOTE_D4,-4,  NOTE_C4,8,  NOTE_C4,2,

  NOTE_D4,4,  NOTE_D4,4,  NOTE_E4,4,  NOTE_C4,4,//8
  NOTE_D4,4,  NOTE_E4,8,  NOTE_F4,8,  NOTE_E4,4, NOTE_C4,4,
  NOTE_D4,4,  NOTE_E4,8,  NOTE_F4,8,  NOTE_E4,4, NOTE_D4,4,
  NOTE_C4,4,  NOTE_D4,4,  NOTE_G3,2,

  NOTE_E4,4,  NOTE_E4,4,  NOTE_F4,4,  NOTE_G4,4,//12
  NOTE_G4,4,  NOTE_F4,4,  NOTE_E4,4,  NOTE_D4,4,
  NOTE_C4,4,  NOTE_C4,4,  NOTE_D4,4,  NOTE_E4,4,
  NOTE_D4,-4,  NOTE_C4,8,  NOTE_C4,2
};
//602
 int lionsleeps[] = {
  NOTE_F4, 4, NOTE_G4, 4, NOTE_A4, 8, NOTE_G4, 4, NOTE_A4, 8, //1
  NOTE_AS4, 4, NOTE_A4, 4, NOTE_G4, 8, NOTE_F4, 4, NOTE_G4, 8,
  NOTE_A4, 4, NOTE_C4, 8, NOTE_C4, 4, NOTE_C4, 8, NOTE_C4, 4,
  NOTE_C4, 1, //1st ending

  NOTE_F4, 4, NOTE_G4, 4, NOTE_A4, 8, NOTE_G4, 4, NOTE_A4, 8, //repeats from 1
  NOTE_AS4, 4, NOTE_A4, 4, NOTE_G4, 8, NOTE_F4, 4, NOTE_G4, 8,
  NOTE_A4, 4, NOTE_C4, 8, NOTE_C4, 4, NOTE_C4, 8, NOTE_C4, 4,
  NOTE_C4, -2,  REST, -8, NOTE_A4, 16, //2nd ending

  NOTE_A4, -8, NOTE_A4, 16, NOTE_A4, -8, NOTE_A4, 16, NOTE_A4, -8, NOTE_A4, 16, NOTE_A4, -8, NOTE_A4, 16, //6
  NOTE_AS4, -8, NOTE_AS4, 16, NOTE_AS4, -8, NOTE_AS4, 16, NOTE_AS4, -8, NOTE_AS4, 16, NOTE_AS4, -8, NOTE_AS4, 16,
  NOTE_A4, -8, NOTE_A4, 16, NOTE_A4, -8, NOTE_A4, 16, NOTE_A4, -8, NOTE_A4, 16, NOTE_A4, -8, NOTE_A4, 16,
  NOTE_G4, -8, NOTE_G4, 16, NOTE_G4, -8, NOTE_G4, 16, NOTE_G4, -8, NOTE_G4, 16, NOTE_G4, -8, NOTE_G4, 16,

  NOTE_A4, -8, NOTE_A4, 16, NOTE_A4, -8, NOTE_A4, 16, NOTE_A4, -8, NOTE_A4, 16, NOTE_A4, -8, NOTE_A4, 16, //10
  NOTE_AS4, -8, NOTE_AS4, 16, NOTE_AS4, -8, NOTE_AS4, 16, NOTE_AS4, -8, NOTE_AS4, 16, NOTE_AS4, -8, NOTE_AS4, 16,
  NOTE_A4, -8, NOTE_A4, 16, NOTE_A4, -8, NOTE_A4, 16, NOTE_A4, -8, NOTE_A4, 16, NOTE_A4, -8, NOTE_A4, 16,
  NOTE_G4, -8, NOTE_G4, 16, NOTE_G4, -8, NOTE_G4, 16, NOTE_G4, -8, NOTE_G4, 16, NOTE_G4, -8, NOTE_G4, 16,

  NOTE_F4, 4, NOTE_G4, 4, NOTE_A4, 8, NOTE_G4, 4, NOTE_A4, 8, //14
  NOTE_AS4, 4, NOTE_A4, 4, NOTE_G4, 8, NOTE_F4, 4, NOTE_G4, 8,
  NOTE_A4, 4, NOTE_G4, 4, NOTE_F4, 4, NOTE_A4, 4,
  NOTE_G4, 1,
  NOTE_C5, 4, NOTE_A4, 4, NOTE_G4, 8, NOTE_A4, 4, NOTE_C5, 8,
  NOTE_AS4, 4, NOTE_A4, 4, NOTE_G4, 8, NOTE_F4, 4, NOTE_G4, 8,
  NOTE_A4, 4, NOTE_G4, 4, NOTE_F4, 4, NOTE_A4, 4,
  NOTE_G4, 1,

  NOTE_C5, 1, //22
  NOTE_C5, 4, NOTE_AS4, 8, NOTE_C5, 8, NOTE_AS4, 2,
  NOTE_A4, 4, NOTE_C4, 8, NOTE_C4, 4, NOTE_C4, 8, NOTE_C4, 4,
  NOTE_C4, 1,

  REST, 4, NOTE_A4, 8, NOTE_G4, 8, NOTE_F4, 8, NOTE_E4, 8, NOTE_D4, 8, NOTE_C4, 8, 
  NOTE_D4, 1,
  REST, 4, NOTE_A4, 8, NOTE_G4, 8, NOTE_F4, 8, NOTE_E4, 8, NOTE_D4, 8, NOTE_C4, 8, 
  NOTE_D4, 1,

  NOTE_F4, 4, NOTE_G4, 4, NOTE_A4, 8, NOTE_G4, 4, NOTE_A4, 8, //repeats from 14
  NOTE_AS4, 4, NOTE_A4, 4, NOTE_G4, 8, NOTE_F4, 4, NOTE_G4, 8,
  NOTE_A4, 4, NOTE_G4, 4, NOTE_F4, 4, NOTE_A4, 4,
  NOTE_G4, 1,
  NOTE_C5, 4, NOTE_A4, 4, NOTE_G4, 8, NOTE_A4, 4, NOTE_C5, 8,
  NOTE_AS4, 4, NOTE_A4, 4, NOTE_G4, 8, NOTE_F4, 4, NOTE_G4, 8,
  NOTE_A4, 4, NOTE_G4, 4, NOTE_F4, 4, NOTE_A4, 4,
  NOTE_G4, 1,

  NOTE_C5, 1, //22
  NOTE_C5, 4, NOTE_AS4, 8, NOTE_C5, 8, NOTE_AS4, 2,
  NOTE_A4, 4, NOTE_C4, 8, NOTE_C4, 4, NOTE_C4, 8, NOTE_C4, 4,
  NOTE_C4, 1,

  REST, 4, NOTE_A4, 8, NOTE_G4, 8, NOTE_F4, 8, NOTE_E4, 8, NOTE_D4, 8, NOTE_C4, 8, 
  NOTE_D4, 1,
  REST, 4, NOTE_A4, 8, NOTE_G4, 8, NOTE_F4, 8, NOTE_E4, 8, NOTE_D4, 8, NOTE_C4, 8, 
  NOTE_D4, 1,

  NOTE_F4, 4, NOTE_G4, 4, NOTE_A4, 8, NOTE_G4, 4, NOTE_A4, 8, //30
  NOTE_AS4, 4, NOTE_A4, 4, NOTE_G4, 8, NOTE_F4, 4, NOTE_G4, 8,
  NOTE_A4, 4, NOTE_C4, 8, NOTE_C4, 4, NOTE_C4, 8, NOTE_C4, 4,
  NOTE_C4, 1, 

  NOTE_F4, 4, NOTE_G4, 4, NOTE_A4, 8, NOTE_G4, 4, NOTE_A4, 8, //repeats from 14 (again)
  NOTE_AS4, 4, NOTE_A4, 4, NOTE_G4, 8, NOTE_F4, 4, NOTE_G4, 8,
  NOTE_A4, 4, NOTE_G4, 4, NOTE_F4, 4, NOTE_A4, 4,
  NOTE_G4, 1,
  NOTE_C5, 4, NOTE_A4, 4, NOTE_G4, 8, NOTE_A4, 4, NOTE_C5, 8,
  NOTE_AS4, 4, NOTE_A4, 4, NOTE_G4, 8, NOTE_F4, 4, NOTE_G4, 8,
  NOTE_A4, 4, NOTE_G4, 4, NOTE_F4, 4, NOTE_A4, 4,
  NOTE_G4, 1,

  NOTE_C5, 1, //22
  NOTE_C5, 4, NOTE_AS4, 8, NOTE_C5, 8, NOTE_AS4, 2,
  NOTE_A4, 4, NOTE_C4, 8, NOTE_C4, 4, NOTE_C4, 8, NOTE_C4, 4,
  NOTE_C4, 1,

  REST, 4, NOTE_A4, 8, NOTE_G4, 8, NOTE_F4, 8, NOTE_E4, 8, NOTE_D4, 8, NOTE_C4, 8, 
  NOTE_D4, 1,
  REST, 4, NOTE_A4, 8, NOTE_G4, 8, NOTE_F4, 8, NOTE_E4, 8, NOTE_D4, 8, NOTE_C4, 8, 
  NOTE_D4, 1,

  NOTE_F4, 4, NOTE_G4, 4, NOTE_A4, 8, NOTE_G4, 4, NOTE_A4, 8, //30
  NOTE_AS4, 4, NOTE_A4, 4, NOTE_G4, 8, NOTE_F4, 4, NOTE_G4, 8,
  NOTE_A4, 4, NOTE_C4, 8, NOTE_C4, 4, NOTE_C4, 8, NOTE_C4, 4,
  NOTE_C4, 1, 
};
//108
 int brahmslullaby[] = {
  NOTE_G4, 4, NOTE_G4, 4, //1
  NOTE_AS4, -4, NOTE_G4, 8, NOTE_G4, 4,
  NOTE_AS4, 4, REST, 4, NOTE_G4, 8, NOTE_AS4, 8,
  NOTE_DS5, 4, NOTE_D5, -4, NOTE_C5, 8,
  NOTE_C5, 4, NOTE_AS4, 4, NOTE_F4, 8, NOTE_G4, 8,
  NOTE_GS4, 4, NOTE_F4, 4, NOTE_F4, 8, NOTE_G4, 8,
  NOTE_GS4, 4, REST, 4, NOTE_F4, 8, NOTE_GS4, 8,
  NOTE_D5, 8, NOTE_C5, 8, NOTE_AS4, 4, NOTE_D5, 4,

  NOTE_DS5, 4, REST, 4, NOTE_DS4, 8, NOTE_DS4, 8, //8
  NOTE_DS5, 2, NOTE_C5, 8, NOTE_GS4, 8,
  NOTE_AS4, 2, NOTE_G4, 8, NOTE_DS4, 8,
  NOTE_GS4, 4, NOTE_AS4, 4, NOTE_C5, 4,
  NOTE_AS4, 2, NOTE_DS4, 8, NOTE_DS4, 8,
  NOTE_DS5, 2, NOTE_C5, 8, NOTE_GS4, 8,
  NOTE_AS4, 2, NOTE_G4, 8, NOTE_DS4, 8,
  NOTE_AS4, 4, NOTE_G4, 4, NOTE_DS4, 4,
  NOTE_DS4, 2
};
//608
 int rickRoll[] = {
  NOTE_D5,-4, NOTE_E5,-4, NOTE_A4,4, //1
  NOTE_E5,-4, NOTE_FS5,-4, NOTE_A5,16, NOTE_G5,16, NOTE_FS5,8,
  NOTE_D5,-4, NOTE_E5,-4, NOTE_A4,2,
  NOTE_A4,16, NOTE_A4,16, NOTE_B4,16, NOTE_D5,8, NOTE_D5,16,
  NOTE_D5,-4, NOTE_E5,-4, NOTE_A4,4, //repeat from 1
  NOTE_E5,-4, NOTE_FS5,-4, NOTE_A5,16, NOTE_G5,16, NOTE_FS5,8,
  NOTE_D5,-4, NOTE_E5,-4, NOTE_A4,2,
  NOTE_A4,16, NOTE_A4,16, NOTE_B4,16, NOTE_D5,8, NOTE_D5,16,
  REST,4, NOTE_B4,8, NOTE_CS5,8, NOTE_D5,8, NOTE_D5,8, NOTE_E5,8, NOTE_CS5,-8,
  NOTE_B4,16, NOTE_A4,2, REST,4, 

  REST,8, NOTE_B4,8, NOTE_B4,8, NOTE_CS5,8, NOTE_D5,8, NOTE_B4,4, NOTE_A4,8, //7
  NOTE_A5,8, REST,8, NOTE_A5,8, NOTE_E5,-4, REST,4, 
  NOTE_B4,8, NOTE_B4,8, NOTE_CS5,8, NOTE_D5,8, NOTE_B4,8, NOTE_D5,8, NOTE_E5,8, REST,8,
  REST,8, NOTE_CS5,8, NOTE_B4,8, NOTE_A4,-4, REST,4,
  REST,8, NOTE_B4,8, NOTE_B4,8, NOTE_CS5,8, NOTE_D5,8, NOTE_B4,8, NOTE_A4,4,
  NOTE_E5,8, NOTE_E5,8, NOTE_E5,8, NOTE_FS5,8, NOTE_E5,4, REST,4,
   
  NOTE_D5,2, NOTE_E5,8, NOTE_FS5,8, NOTE_D5,8, //13
  NOTE_E5,8, NOTE_E5,8, NOTE_E5,8, NOTE_FS5,8, NOTE_E5,4, NOTE_A4,4,
  REST,2, NOTE_B4,8, NOTE_CS5,8, NOTE_D5,8, NOTE_B4,8,
  REST,8, NOTE_E5,8, NOTE_FS5,8, NOTE_E5,-4, NOTE_A4,16, NOTE_B4,16, NOTE_D5,16, NOTE_B4,16,
  NOTE_FS5,-8, NOTE_FS5,-8, NOTE_E5,-4, NOTE_A4,16, NOTE_B4,16, NOTE_D5,16, NOTE_B4,16,

  NOTE_E5,-8, NOTE_E5,-8, NOTE_D5,-8, NOTE_CS5,16, NOTE_B4,-8, NOTE_A4,16, NOTE_B4,16, NOTE_D5,16, NOTE_B4,16, //18
  NOTE_D5,4, NOTE_E5,8, NOTE_CS5,-8, NOTE_B4,16, NOTE_A4,8, NOTE_A4,8, NOTE_A4,8, 
  NOTE_E5,4, NOTE_D5,2, NOTE_A4,16, NOTE_B4,16, NOTE_D5,16, NOTE_B4,16,
  NOTE_FS5,-8, NOTE_FS5,-8, NOTE_E5,-4, NOTE_A4,16, NOTE_B4,16, NOTE_D5,16, NOTE_B4,16,
  NOTE_A5,4, NOTE_CS5,8, NOTE_D5,-8, NOTE_CS5,16, NOTE_B4,8, NOTE_A4,16, NOTE_B4,16, NOTE_D5,16, NOTE_B4,16,

  NOTE_D5,4, NOTE_E5,8, NOTE_CS5,-8, NOTE_B4,16, NOTE_A4,4, NOTE_A4,8,  //23
  NOTE_E5,4, NOTE_D5,2, REST,4,
  REST,8, NOTE_B4,8, NOTE_D5,8, NOTE_B4,8, NOTE_D5,8, NOTE_E5,4, REST,8,
  REST,8, NOTE_CS5,8, NOTE_B4,8, NOTE_A4,-4, REST,4,
  REST,8, NOTE_B4,8, NOTE_B4,8, NOTE_CS5,8, NOTE_D5,8, NOTE_B4,8, NOTE_A4,4,
  REST,8, NOTE_A5,8, NOTE_A5,8, NOTE_E5,8, NOTE_FS5,8, NOTE_E5,8, NOTE_D5,8,
  
  REST,8, NOTE_A4,8, NOTE_B4,8, NOTE_CS5,8, NOTE_D5,8, NOTE_B4,8, //29
  REST,8, NOTE_CS5,8, NOTE_B4,8, NOTE_A4,-4, REST,4,
  NOTE_B4,8, NOTE_B4,8, NOTE_CS5,8, NOTE_D5,8, NOTE_B4,8, NOTE_A4,4, REST,8,
  REST,8, NOTE_E5,8, NOTE_E5,8, NOTE_FS5,4, NOTE_E5,-4, 
  NOTE_D5,2, NOTE_D5,8, NOTE_E5,8, NOTE_FS5,8, NOTE_E5,4, 
  NOTE_E5,8, NOTE_E5,8, NOTE_FS5,8, NOTE_E5,8, NOTE_A4,8, NOTE_A4,4,

  REST,-4, NOTE_A4,8, NOTE_B4,8, NOTE_CS5,8, NOTE_D5,8, NOTE_B4,8, //35
  REST,8, NOTE_E5,8, NOTE_FS5,8, NOTE_E5,-4, NOTE_A4,16, NOTE_B4,16, NOTE_D5,16, NOTE_B4,16,
  NOTE_FS5,-8, NOTE_FS5,-8, NOTE_E5,-4, NOTE_A4,16, NOTE_B4,16, NOTE_D5,16, NOTE_B4,16,
  NOTE_E5,-8, NOTE_E5,-8, NOTE_D5,-8, NOTE_CS5,16, NOTE_B4,8, NOTE_A4,16, NOTE_B4,16, NOTE_D5,16, NOTE_B4,16,
  NOTE_D5,4, NOTE_E5,8, NOTE_CS5,-8, NOTE_B4,16, NOTE_A4,4, NOTE_A4,8, 

   NOTE_E5,4, NOTE_D5,2, NOTE_A4,16, NOTE_B4,16, NOTE_D5,16, NOTE_B4,16, //40
  NOTE_FS5,-8, NOTE_FS5,-8, NOTE_E5,-4, NOTE_A4,16, NOTE_B4,16, NOTE_D5,16, NOTE_B4,16,
  NOTE_A5,4, NOTE_CS5,8, NOTE_D5,-8, NOTE_CS5,16, NOTE_B4,8, NOTE_A4,16, NOTE_B4,16, NOTE_D5,16, NOTE_B4,16,
  NOTE_D5,4, NOTE_E5,8, NOTE_CS5,-8, NOTE_B4,16, NOTE_A4,4, NOTE_A4,8,  
  NOTE_E5,4, NOTE_D5,2, NOTE_A4,16, NOTE_B4,16, NOTE_D5,16, NOTE_B4,16,
   
  NOTE_FS5,-8, NOTE_FS5,-8, NOTE_E5,-4, NOTE_A4,16, NOTE_B4,16, NOTE_D5,16, NOTE_B4,16, //45
  NOTE_A5,4, NOTE_CS5,8, NOTE_D5,-8, NOTE_CS5,16, NOTE_B4,8, NOTE_A4,16, NOTE_B4,16, NOTE_D5,16, NOTE_B4,16,
  NOTE_D5,4, NOTE_E5,8, NOTE_CS5,-8, NOTE_B4,16, NOTE_A4,4, NOTE_A4,8,  
  NOTE_E5,4, NOTE_D5,2, NOTE_A4,16, NOTE_B4,16, NOTE_D5,16, NOTE_B4,16,
  NOTE_FS5,-8, NOTE_FS5,-8, NOTE_E5,-4, NOTE_A4,16, NOTE_B4,16, NOTE_D5,16, NOTE_B4,16, //45
  
  NOTE_A5,4, NOTE_CS5,8, NOTE_D5,-8, NOTE_CS5,16, NOTE_B4,8, NOTE_A4,16, NOTE_B4,16, NOTE_D5,16, NOTE_B4,16,
  NOTE_D5,4, NOTE_E5,8, NOTE_CS5,-8, NOTE_B4,16, NOTE_A4,4, NOTE_A4,8, 

  NOTE_E5,4, NOTE_D5,2, REST,4
};
//1360
 int doomScore[] = {
  NOTE_E2, 8, NOTE_E2, 8, NOTE_E3, 8, NOTE_E2, 8, NOTE_E2, 8, NOTE_D3, 8, NOTE_E2, 8, NOTE_E2, 8, //1
  NOTE_C3, 8, NOTE_E2, 8, NOTE_E2, 8, NOTE_AS2, 8, NOTE_E2, 8, NOTE_E2, 8, NOTE_B2, 8, NOTE_C3, 8,
  NOTE_E2, 8, NOTE_E2, 8, NOTE_E3, 8, NOTE_E2, 8, NOTE_E2, 8, NOTE_D3, 8, NOTE_E2, 8, NOTE_E2, 8,
  NOTE_C3, 8, NOTE_E2, 8, NOTE_E2, 8, NOTE_AS2, -2,

  NOTE_E2, 8, NOTE_E2, 8, NOTE_E3, 8, NOTE_E2, 8, NOTE_E2, 8, NOTE_D3, 8, NOTE_E2, 8, NOTE_E2, 8, //5
  NOTE_C3, 8, NOTE_E2, 8, NOTE_E2, 8, NOTE_AS2, 8, NOTE_E2, 8, NOTE_E2, 8, NOTE_B2, 8, NOTE_C3, 8,
  NOTE_E2, 8, NOTE_E2, 8, NOTE_E3, 8, NOTE_E2, 8, NOTE_E2, 8, NOTE_D3, 8, NOTE_E2, 8, NOTE_E2, 8,
  NOTE_C3, 8, NOTE_E2, 8, NOTE_E2, 8, NOTE_AS2, -2,

  NOTE_E2, 8, NOTE_E2, 8, NOTE_E3, 8, NOTE_E2, 8, NOTE_E2, 8, NOTE_D3, 8, NOTE_E2, 8, NOTE_E2, 8, //9
  NOTE_C3, 8, NOTE_E2, 8, NOTE_E2, 8, NOTE_AS2, 8, NOTE_E2, 8, NOTE_E2, 8, NOTE_B2, 8, NOTE_C3, 8,
  NOTE_E2, 8, NOTE_E2, 8, NOTE_E3, 8, NOTE_E2, 8, NOTE_E2, 8, NOTE_D3, 8, NOTE_E2, 8, NOTE_E2, 8,
  NOTE_C3, 8, NOTE_E2, 8, NOTE_E2, 8, NOTE_AS2, -2,

  NOTE_E2, 8, NOTE_E2, 8, NOTE_E3, 8, NOTE_E2, 8, NOTE_E2, 8, NOTE_D3, 8, NOTE_E2, 8, NOTE_E2, 8, //13
  NOTE_C3, 8, NOTE_E2, 8, NOTE_E2, 8, NOTE_AS2, 8, NOTE_E2, 8, NOTE_E2, 8, NOTE_B2, 8, NOTE_C3, 8,
  NOTE_E2, 8, NOTE_E2, 8, NOTE_E3, 8, NOTE_E2, 8, NOTE_E2, 8, NOTE_D3, 8, NOTE_E2, 8, NOTE_E2, 8,
  NOTE_FS3, -16, NOTE_D3, -16, NOTE_B2, -16, NOTE_A3, -16, NOTE_FS3, -16, NOTE_B2, -16, NOTE_D3, -16, NOTE_FS3, -16, NOTE_A3, -16, NOTE_FS3, -16, NOTE_D3, -16, NOTE_B2, -16,

  NOTE_E2, 8, NOTE_E2, 8, NOTE_E3, 8, NOTE_E2, 8, NOTE_E2, 8, NOTE_D3, 8, NOTE_E2, 8, NOTE_E2, 8, //17
  NOTE_C3, 8, NOTE_E2, 8, NOTE_E2, 8, NOTE_AS2, 8, NOTE_E2, 8, NOTE_E2, 8, NOTE_B2, 8, NOTE_C3, 8,
  NOTE_E2, 8, NOTE_E2, 8, NOTE_E3, 8, NOTE_E2, 8, NOTE_E2, 8, NOTE_D3, 8, NOTE_E2, 8, NOTE_E2, 8,
  NOTE_C3, 8, NOTE_E2, 8, NOTE_E2, 8, NOTE_AS2, -2,

  NOTE_E2, 8, NOTE_E2, 8, NOTE_E3, 8, NOTE_E2, 8, NOTE_E2, 8, NOTE_D3, 8, NOTE_E2, 8, NOTE_E2, 8, //21
  NOTE_C3, 8, NOTE_E2, 8, NOTE_E2, 8, NOTE_AS2, 8, NOTE_E2, 8, NOTE_E2, 8, NOTE_B2, 8, NOTE_C3, 8,
  NOTE_E2, 8, NOTE_E2, 8, NOTE_E3, 8, NOTE_E2, 8, NOTE_E2, 8, NOTE_D3, 8, NOTE_E2, 8, NOTE_E2, 8,
  NOTE_B3, -16, NOTE_G3, -16, NOTE_E3, -16, NOTE_G3, -16, NOTE_B3, -16, NOTE_E4, -16, NOTE_G3, -16, NOTE_B3, -16, NOTE_E4, -16, NOTE_B3, -16, NOTE_G4, -16, NOTE_B4, -16,

  NOTE_A2, 8, NOTE_A2, 8, NOTE_A3, 8, NOTE_A2, 8, NOTE_A2, 8, NOTE_G3, 8, NOTE_A2, 8, NOTE_A2, 8, //25
  NOTE_F3, 8, NOTE_A2, 8, NOTE_A2, 8, NOTE_DS3, 8, NOTE_A2, 8, NOTE_A2, 8, NOTE_E3, 8, NOTE_F3, 8,
  NOTE_A2, 8, NOTE_A2, 8, NOTE_A3, 8, NOTE_A2, 8, NOTE_A2, 8, NOTE_G3, 8, NOTE_A2, 8, NOTE_A2, 8,
  NOTE_F3, 8, NOTE_A2, 8, NOTE_A2, 8, NOTE_DS3, -2,

  NOTE_A2, 8, NOTE_A2, 8, NOTE_A3, 8, NOTE_A2, 8, NOTE_A2, 8, NOTE_G3, 8, NOTE_A2, 8, NOTE_A2, 8, //29
  NOTE_F3, 8, NOTE_A2, 8, NOTE_A2, 8, NOTE_DS3, 8, NOTE_A2, 8, NOTE_A2, 8, NOTE_E3, 8, NOTE_F3, 8,
  NOTE_A2, 8, NOTE_A2, 8, NOTE_A3, 8, NOTE_A2, 8, NOTE_A2, 8, NOTE_G3, 8, NOTE_A2, 8, NOTE_A2, 8,
  NOTE_A3, -16, NOTE_F3, -16, NOTE_D3, -16, NOTE_A3, -16, NOTE_F3, -16, NOTE_D3, -16, NOTE_C4, -16, NOTE_A3, -16, NOTE_F3, -16, NOTE_A3, -16, NOTE_F3, -16, NOTE_D3, -16,

  NOTE_E2, 8, NOTE_E2, 8, NOTE_E3, 8, NOTE_E2, 8, NOTE_E2, 8, NOTE_D3, 8, NOTE_E2, 8, NOTE_E2, 8, //33
  NOTE_C3, 8, NOTE_E2, 8, NOTE_E2, 8, NOTE_AS2, 8, NOTE_E2, 8, NOTE_E2, 8, NOTE_B2, 8, NOTE_C3, 8,
  NOTE_E2, 8, NOTE_E2, 8, NOTE_E3, 8, NOTE_E2, 8, NOTE_E2, 8, NOTE_D3, 8, NOTE_E2, 8, NOTE_E2, 8,
  NOTE_C3, 8, NOTE_E2, 8, NOTE_E2, 8, NOTE_AS2, -2,

  NOTE_E2, 8, NOTE_E2, 8, NOTE_E3, 8, NOTE_E2, 8, NOTE_E2, 8, NOTE_D3, 8, NOTE_E2, 8, NOTE_E2, 8, //37
  NOTE_C3, 8, NOTE_E2, 8, NOTE_E2, 8, NOTE_AS2, 8, NOTE_E2, 8, NOTE_E2, 8, NOTE_B2, 8, NOTE_C3, 8,
  NOTE_E2, 8, NOTE_E2, 8, NOTE_E3, 8, NOTE_E2, 8, NOTE_E2, 8, NOTE_D3, 8, NOTE_E2, 8, NOTE_E2, 8,
  NOTE_C3, 8, NOTE_E2, 8, NOTE_E2, 8, NOTE_AS2, -2,

  NOTE_CS3, 8, NOTE_CS3, 8, NOTE_CS4, 8, NOTE_CS3, 8, NOTE_CS3, 8, NOTE_B3, 8, NOTE_CS3, 8, NOTE_CS3, 8, //41
  NOTE_A3, 8, NOTE_CS3, 8, NOTE_CS3, 8, NOTE_G3, 8, NOTE_CS3, 8, NOTE_CS3, 8, NOTE_GS3, 8, NOTE_A3, 8,
  NOTE_B2, 8, NOTE_B2, 8, NOTE_B3, 8, NOTE_B2, 8, NOTE_B2, 8, NOTE_A3, 8, NOTE_B2, 8, NOTE_B2, 8,
  NOTE_G3, 8, NOTE_B2, 8, NOTE_B2, 8, NOTE_F3, -2,

  NOTE_E2, 8, NOTE_E2, 8, NOTE_E3, 8, NOTE_E2, 8, NOTE_E2, 8, NOTE_D3, 8, NOTE_E2, 8, NOTE_E2, 8, //45
  NOTE_C3, 8, NOTE_E2, 8, NOTE_E2, 8, NOTE_AS2, 8, NOTE_E2, 8, NOTE_E2, 8, NOTE_B2, 8, NOTE_C3, 8,
  NOTE_E2, 8, NOTE_E2, 8, NOTE_E3, 8, NOTE_E2, 8, NOTE_E2, 8, NOTE_D3, 8, NOTE_E2, 8, NOTE_E2, 8,
  NOTE_B3, -16, NOTE_G3, -16, NOTE_E3, -16, NOTE_G3, -16, NOTE_B3, -16, NOTE_E4, -16, NOTE_G3, -16, NOTE_B3, -16, NOTE_E4, -16, NOTE_B3, -16, NOTE_G4, -16, NOTE_B4, -16,

  NOTE_E2, 8, NOTE_E2, 8, NOTE_E3, 8, NOTE_E2, 8, NOTE_E2, 8, NOTE_D3, 8, NOTE_E2, 8, NOTE_E2, 8, //49
  NOTE_C3, 8, NOTE_E2, 8, NOTE_E2, 8, NOTE_AS2, 8, NOTE_E2, 8, NOTE_E2, 8, NOTE_B2, 8, NOTE_C3, 8,
  NOTE_E2, 8, NOTE_E2, 8, NOTE_E3, 8, NOTE_E2, 8, NOTE_E2, 8, NOTE_D3, 8, NOTE_E2, 8, NOTE_E2, 8,
  NOTE_C3, 8, NOTE_E2, 8, NOTE_E2, 8, NOTE_AS2, -2,

  NOTE_E2, 8, NOTE_E2, 8, NOTE_E3, 8, NOTE_E2, 8, NOTE_E2, 8, NOTE_D3, 8, NOTE_E2, 8, NOTE_E2, 8, //53
  NOTE_C3, 8, NOTE_E2, 8, NOTE_E2, 8, NOTE_AS2, 8, NOTE_E2, 8, NOTE_E2, 8, NOTE_B2, 8, NOTE_C3, 8,
  NOTE_E2, 8, NOTE_E2, 8, NOTE_E3, 8, NOTE_E2, 8, NOTE_E2, 8, NOTE_D3, 8, NOTE_E2, 8, NOTE_E2, 8,
  NOTE_FS3, -16, NOTE_DS3, -16, NOTE_B2, -16, NOTE_FS3, -16, NOTE_DS3, -16, NOTE_B2, -16, NOTE_G3, -16, NOTE_D3, -16, NOTE_B2, -16, NOTE_DS4, -16, NOTE_DS3, -16, NOTE_B2, -16,

// -/-

  NOTE_E2, 8, NOTE_E2, 8, NOTE_E3, 8, NOTE_E2, 8, NOTE_E2, 8, NOTE_D3, 8, NOTE_E2, 8, NOTE_E2, 8, //57
  NOTE_C3, 8, NOTE_E2, 8, NOTE_E2, 8, NOTE_AS2, 8, NOTE_E2, 8, NOTE_E2, 8, NOTE_B2, 8, NOTE_C3, 8,
  NOTE_E2, 8, NOTE_E2, 8, NOTE_E3, 8, NOTE_E2, 8, NOTE_E2, 8, NOTE_D3, 8, NOTE_E2, 8, NOTE_E2, 8,
  NOTE_C3, 8, NOTE_E2, 8, NOTE_E2, 8, NOTE_AS2, -2,

  NOTE_E2, 8, NOTE_E2, 8, NOTE_E3, 8, NOTE_E2, 8, NOTE_E2, 8, NOTE_D3, 8, NOTE_E2, 8, NOTE_E2, 8, //61
  NOTE_C3, 8, NOTE_E2, 8, NOTE_E2, 8, NOTE_AS2, 8, NOTE_E2, 8, NOTE_E2, 8, NOTE_B2, 8, NOTE_C3, 8,
  NOTE_E2, 8, NOTE_E2, 8, NOTE_E3, 8, NOTE_E2, 8, NOTE_E2, 8, NOTE_D3, 8, NOTE_E2, 8, NOTE_E2, 8,
  NOTE_E4, -16, NOTE_B3, -16, NOTE_G3, -16, NOTE_G4, -16, NOTE_E4, -16, NOTE_G3, -16, NOTE_B3, -16, NOTE_D4, -16, NOTE_E4, -16, NOTE_G4, -16, NOTE_E4, -16, NOTE_G3, -16,  

  NOTE_E2, 8, NOTE_E2, 8, NOTE_E3, 8, NOTE_E2, 8, NOTE_E2, 8, NOTE_D3, 8, NOTE_E2, 8, NOTE_E2, 8, //65
  NOTE_C3, 8, NOTE_E2, 8, NOTE_E2, 8, NOTE_AS2, 8, NOTE_E2, 8, NOTE_E2, 8, NOTE_B2, 8, NOTE_C3, 8,
  NOTE_E2, 8, NOTE_E2, 8, NOTE_E3, 8, NOTE_E2, 8, NOTE_E2, 8, NOTE_D3, 8, NOTE_E2, 8, NOTE_E2, 8,
  NOTE_C3, 8, NOTE_E2, 8, NOTE_E2, 8, NOTE_AS2, -2,

  NOTE_A2, 8, NOTE_A2, 8, NOTE_A3, 8, NOTE_A2, 8, NOTE_A2, 8, NOTE_G3, 8, NOTE_A2, 8, NOTE_A2, 8, //69
  NOTE_F3, 8, NOTE_A2, 8, NOTE_A2, 8, NOTE_DS3, 8, NOTE_A2, 8, NOTE_A2, 8, NOTE_E3, 8, NOTE_F3, 8,
  NOTE_A2, 8, NOTE_A2, 8, NOTE_A3, 8, NOTE_A2, 8, NOTE_A2, 8, NOTE_G3, 8, NOTE_A2, 8, NOTE_A2, 8,
  NOTE_A3, -16, NOTE_F3, -16, NOTE_D3, -16, NOTE_A3, -16, NOTE_F3, -16, NOTE_D3, -16, NOTE_C4, -16, NOTE_A3, -16, NOTE_F3, -16, NOTE_A3, -16, NOTE_F3, -16, NOTE_D3, -16,

  NOTE_E2, 8, NOTE_E2, 8, NOTE_E3, 8, NOTE_E2, 8, NOTE_E2, 8, NOTE_D3, 8, NOTE_E2, 8, NOTE_E2, 8, //73
  NOTE_C3, 8, NOTE_E2, 8, NOTE_E2, 8, NOTE_AS2, 8, NOTE_E2, 8, NOTE_E2, 8, NOTE_B2, 8, NOTE_C3, 8,
  NOTE_E2, 8, NOTE_E2, 8, NOTE_E3, 8, NOTE_E2, 8, NOTE_E2, 8, NOTE_D3, 8, NOTE_E2, 8, NOTE_E2, 8,
  NOTE_C3, 8, NOTE_E2, 8, NOTE_E2, 8, NOTE_AS2, -2,

  NOTE_E2, 8, NOTE_E2, 8, NOTE_E3, 8, NOTE_E2, 8, NOTE_E2, 8, NOTE_D3, 8, NOTE_E2, 8, NOTE_E2, 8, //77
  NOTE_C3, 8, NOTE_E2, 8, NOTE_E2, 8, NOTE_AS2, 8, NOTE_E2, 8, NOTE_E2, 8, NOTE_B2, 8, NOTE_C3, 8,
  NOTE_E2, 8, NOTE_E2, 8, NOTE_E3, 8, NOTE_E2, 8, NOTE_E2, 8, NOTE_D3, 8, NOTE_E2, 8, NOTE_E2, 8,
  NOTE_C3, 8, NOTE_E2, 8, NOTE_E2, 8, NOTE_AS2, -2,

  NOTE_E2, 8, NOTE_E2, 8, NOTE_E3, 8, NOTE_E2, 8, NOTE_E2, 8, NOTE_D3, 8, NOTE_E2, 8, NOTE_E2, 8, //81
  NOTE_C3, 8, NOTE_E2, 8, NOTE_E2, 8, NOTE_AS2, 8, NOTE_E2, 8, NOTE_E2, 8, NOTE_B2, 8, NOTE_C3, 8,
  NOTE_E2, 8, NOTE_E2, 8, NOTE_E3, 8, NOTE_E2, 8, NOTE_E2, 8, NOTE_D3, 8, NOTE_E2, 8, NOTE_E2, 8,
  NOTE_C3, 8, NOTE_E2, 8, NOTE_E2, 8, NOTE_AS2, -2,

  NOTE_E2, 8, NOTE_E2, 8, NOTE_E3, 8, NOTE_E2, 8, NOTE_E2, 8, NOTE_D3, 8, NOTE_E2, 8, NOTE_E2, 8, //73
  NOTE_C3, 8, NOTE_E2, 8, NOTE_E2, 8, NOTE_AS2, 8, NOTE_E2, 8, NOTE_E2, 8, NOTE_B2, 8, NOTE_C3, 8,
  NOTE_E2, 8, NOTE_E2, 8, NOTE_E3, 8, NOTE_E2, 8, NOTE_E2, 8, NOTE_D3, 8, NOTE_E2, 8, NOTE_E2, 8,
  NOTE_B3, -16, NOTE_G3, -16, NOTE_E3, -16, NOTE_B2, -16, NOTE_E3, -16, NOTE_G3, -16, NOTE_C4, -16, NOTE_B3, -16, NOTE_G3, -16, NOTE_B3, -16, NOTE_G3, -16, NOTE_E3, -16,  
};
int songOfStorms[] = {
  NOTE_D4,4, NOTE_A4,4, NOTE_A4,4,
  REST,8, NOTE_E4,8, NOTE_B4,2,
  NOTE_F4,4, NOTE_C5,4, NOTE_C5,4,
  REST,8, NOTE_E4,8, NOTE_B4,2,
  NOTE_D4,4, NOTE_A4,4, NOTE_A4,4,
  REST,8, NOTE_E4,8, NOTE_B4,2,
  NOTE_F4,4, NOTE_C5,4, NOTE_C5,4,
  REST,8, NOTE_E4,8, NOTE_B4,2,
  NOTE_D4,8, NOTE_F4,8, NOTE_D5,2,
  
  NOTE_D4,8, NOTE_F4,8, NOTE_D5,2,
  NOTE_E5,-4, NOTE_F5,8, NOTE_E5,8, NOTE_E5,8,
  NOTE_E5,8, NOTE_C5,8, NOTE_A4,2,
  NOTE_A4,4, NOTE_D4,4, NOTE_F4,8, NOTE_G4,8,
  NOTE_A4,-2,
  NOTE_A4,4, NOTE_D4,4, NOTE_F4,8, NOTE_G4,8,
  NOTE_E4,-2,
  NOTE_D4,8, NOTE_F4,8, NOTE_D5,2,
  NOTE_D4,8, NOTE_F4,8, NOTE_D5,2,

  NOTE_E5,-4, NOTE_F5,8, NOTE_E5,8, NOTE_E5,8,
  NOTE_E5,8, NOTE_C5,8, NOTE_A4,2,
  NOTE_A4,4, NOTE_D4,4, NOTE_F4,8, NOTE_G4,8,
  NOTE_A4,2, NOTE_A4,4,
  NOTE_D4,1, REST,8,
  NOTE_D4,4, NOTE_A4,4, NOTE_A4,4,
  REST,8, NOTE_E4,8, NOTE_B4,2,
  NOTE_F4,4, NOTE_C5,4, NOTE_C5,4,
  REST,8, NOTE_E4,8, NOTE_B4,2,
  NOTE_D4,4, NOTE_A4,4, NOTE_A4,4,
  REST,8, NOTE_E4,8, NOTE_B4,2,
  NOTE_F4,4, NOTE_C5,4, NOTE_C5,4,
  REST,8, NOTE_E4,8, NOTE_B4,2,
  NOTE_D4,8, NOTE_F4,8, NOTE_D5,2,
  
  NOTE_D4,8, NOTE_F4,8, NOTE_D5,2,
  NOTE_E5,-4, NOTE_F5,8, NOTE_E5,8, NOTE_E5,8,
  NOTE_E5,8, NOTE_C5,8, NOTE_A4,2,
  NOTE_A4,4, NOTE_D4,4, NOTE_F4,8, NOTE_G4,8,
  NOTE_A4,-2,
  NOTE_A4,4, NOTE_D4,4, NOTE_F4,8, NOTE_G4,8,
  NOTE_E4,-2,
  NOTE_D4,8, NOTE_F4,8, NOTE_D5,2,
  NOTE_D4,8, NOTE_F4,8, NOTE_D5,2,

  NOTE_E5,-4, NOTE_F5,8, NOTE_E5,8, NOTE_E5,8,
  NOTE_E5,8, NOTE_C5,8, NOTE_A4,2,
  NOTE_A4,4, NOTE_D4,4, NOTE_F4,8, NOTE_G4,8,
  NOTE_A4,2, NOTE_A4,4,
  NOTE_D4,1,
};